<?xml version="1.0" encoding="utf-8"?>
<!-- Generator: Adobe Illustrator 26.0.1, SVG Export Plug-In . SVG Version: 6.00 Build 0)  -->
<svg version="1.1" id="Layer_1" xmlns="http://www.w3.org/2000/svg" xmlns:xlink="http://www.w3.org/1999/xlink" x="0px" y="0px"
	 viewBox="0 0 256 256" style="enable-background:new 0 0 256 256;" xml:space="preserve">
<style type="text/css">
	.st0{stroke:#000000;stroke-miterlimit:10;}
	.st1{fill:#3B82F6;stroke:#000000;stroke-miterlimit:10;}
</style>
<path class="st0" d="M253.5,77.8L177.9,2.2c-1.1-1.1-2.9-1.1-4,0l-21.1,21.1c-1.1,1.1-1.1,2.9,0,4l7.5,7.5L91.1,85.6
	c-8.5-8.2-22-8.1-30.4,0.3L53,93.6c-1.1,1.1-1.1,2.9,0,4L97.3,142L54.3,185c-12.7,12.7-24.5,26.5-35,41L1.9,249.8
	c-0.8,1.1-0.7,2.7,0.3,3.6c0.5,0.5,1.3,0.8,2,0.8c0.6,0,1.2-0.2,1.6-0.5l23.8-17.3c14.5-10.5,28.3-22.3,41-35l43.1-43.1l44.4,44.4
	c0.5,0.5,1.3,0.8,2,0.8s1.4-0.3,2-0.8l7.7-7.7c8.4-8.4,8.4-21.9,0.3-30.4l50.8-69.3l7.5,7.5c0.5,0.5,1.3,0.8,2,0.8s1.4-0.3,2-0.8
	l21.1-21.1C254.6,80.7,254.6,78.9,253.5,77.8z"/>
<path class="st0" d="M109.8,154.4l-43.1,43.1c-12.5,12.5-26,24.1-40.3,34.4l-9.5,6.9l6.9-9.5C34.2,215,45.8,201.5,58.2,189
	l43.1-43.1l4.2,4.2L109.8,154.4z"/>
<path class="st1" d="M165.8,191.1l-5.7,5.7l-50.6-50.6l-6.2-6.2l0,0L58.9,95.6l5.7-5.7c6.3-6.3,16.5-6.3,22.8,0l1.4,1.4l75.6,75.6
	l1.4,1.4C172.1,174.6,172.1,184.8,165.8,191.1z"/>
<polygon class="st1" points="166.1,160.6 95.1,89.6 164.4,38.8 216.9,91.3 "/>
<polygon class="st1" points="230.4,96.9 222.5,89.1 166.7,33.2 166.7,33.2 158.8,25.3 175.9,8.2 247.5,79.8 "/>
</svg>
